<?xml version="1.0" encoding="utf-8"?>
<!-- Generator: Adobe Illustrator 17.1.0, SVG Export Plug-In . SVG Version: 6.00 Build 0)  -->
<!DOCTYPE svg PUBLIC "-//W3C//DTD SVG 1.1//EN" "http://www.w3.org/Graphics/SVG/1.1/DTD/svg11.dtd">
<svg version="1.1" id="Layer_1" xmlns="http://www.w3.org/2000/svg" xmlns:xlink="http://www.w3.org/1999/xlink" x="0px" y="0px"
	 width="50px" height="50px" viewBox="0 0 470 260" enable-background="new 0 0 470 260" xml:space="preserve">
<g id="guides">
	<g>
		<g>
			<path fill="#EB2429" d="M5.3,138.8c0,0-11.5-6.3-0.1-12.7L222.9,2.8c0,0,11.4-6.5,22.9,0l219.4,123.4c0,0,11.4,6.4-0.1,12.7
				L245.8,257.2c0,0-11.6,6.2-23.1,0L5.3,138.8z"/>
		</g>
		<g>
			<path fill="#FFFFFF" d="M219.2,199.4h-22.1c-1.7,0-3-1.4-3-3v-26.7l-12.6-17.1h-66.2l-11,18.9c-0.5,0.9-1.5,1.5-2.6,1.5H80.6
				c-1.1,0-2.1-0.6-2.6-1.5c-0.5-0.9-0.5-2.1,0-3l65.1-113.1c0.5-0.9,1.5-1.5,2.5-1.5c1,0,2,0.5,2.6,1.3l45.8,67.5V76.6
				c0-1.7,1.4-3,3-3h73.3c1.7,0,3,1.4,3,3v18.7c0,1.7-1.4,3-3,3h-48.4V127h49.2l42.4-71.7c0.5-0.9,1.5-1.5,2.5-1.5s2,0.5,2.6,1.4
				L393,168.3c0.6,0.9,0.7,2.1,0.1,3.1c-0.5,1-1.5,1.6-2.7,1.6h-23.8c-1,0-2-0.5-2.5-1.3l-12.7-19.1h-63l-11,18.9
				c-0.5,0.9-1.5,1.5-2.6,1.5h-24.1c-1.1,0-2.1-0.6-2.6-1.5s-0.5-2.1,0-3l9.1-15.9h-34.9v43.8C222.3,198.1,220.9,199.4,219.2,199.4z
				 M127.1,133.4h41.3l-21.8-32.5L127.1,133.4z M299.9,133.4H338l-20-30.1L299.9,133.4z"/>
		</g>
	</g>
</g>
</svg>
